<svg xmlns="http://www.w3.org/2000/svg" width="35" height="35" viewBox="0 0 35 35">
    <g fill="none" fill-rule="evenodd">
        <g>
            <g transform="translate(-366 -250) translate(366 250)">
                <path fill="#EDF2F2" fill-rule="nonzero" d="M33.105 21.769H12.88v11.336c0 .41-.162.803-.452 1.092-.29.29-.683.453-1.093.453h21.769c.41 0 .803-.163 1.092-.453.29-.29.453-.682.453-1.092v-9.783c.002-.411-.16-.806-.45-1.098-.29-.292-.684-.455-1.095-.455z"/>
                <path fill="#6F6D8C" d="M33.105 21.769H12.88v11.336c0 .41-.162.803-.452 1.092-.29.29-.683.453-1.093.453h21.769c.41 0 .803-.163 1.092-.453.29-.29.453-.682.453-1.092v-9.783c.002-.411-.16-.806-.45-1.098-.29-.292-.684-.455-1.095-.455z" opacity=".3"/>
                <path fill="#EDF2F2" fill-rule="nonzero" d="M32.927 20.686c.356-.205.616-.543.722-.94.106-.398.05-.821-.158-1.177l-4.907-8.5c-.205-.357-.544-.617-.941-.723-.398-.105-.821-.049-1.176.158L12.88 17.41v14.894l20.046-11.618z"/>
                <path fill="#6F6D8C" d="M32.927 20.686c.356-.205.616-.543.722-.94.106-.398.05-.821-.158-1.177l-4.907-8.5c-.205-.357-.544-.617-.941-.723-.398-.105-.821-.049-1.176.158L12.88 17.41v14.894l20.046-11.618z" opacity=".5"/>
                <path fill="#EDF2F2" fill-rule="nonzero" d="M25.541 8.37c.207-.356.264-.78.157-1.177-.106-.397-.366-.736-.723-.94l-8.5-4.9c-.356-.208-.779-.264-1.176-.159-.398.106-.736.366-.942.723l-1.476 2.588v25.741l12.66-21.877z"/>
                <path fill="#FFF" fill-rule="nonzero" d="M12.881 30.16L12.881 30.245 13.477 29.209z"/>
                <path fill="#3B3561" d="M25.541 8.37c.207-.356.264-.78.157-1.177-.106-.397-.366-.736-.723-.94l-8.5-4.9c-.356-.208-.779-.264-1.176-.159-.398.106-.736.366-.942.723l-1.476 2.588v25.741l12.66-21.877z" opacity=".7"/>
                <rect width="12.882" height="34.658" fill="#EDF2F2" fill-rule="nonzero" rx="2"/>
                <rect width="12.882" height="34.658" fill="#3B3561" rx="2"/>
            </g>
        </g>
    </g>
</svg>
